<svg width="100" height="100" xmlns="http://www.w3.org/2000/svg" viewBox="0 0 100 100">
  <g id="background" featurekey="background" transform="matrix(0.8700000047683716,0,0,0.8700000047683716,0,0)" fill="#364f6b">
    <path xmlns="http://www.w3.org/2000/svg" d="M0 0h100v100H0z"></path>
    </g>
  <g id="text" featurekey="text" transform="matrix(3.110797166824341,0,0,3.110797166824341,19.99466002937599,4.689578843638195)" fill="#fce38a">
    <path d="M10.801 9.697 q-0.546875 -0.78125 -0.986328125 -1.108398438 t-0.94727 -0.46875 t-1.0645 -0.1416 q-0.8203125 0 -1.5234375 0.3662109375 t-1.2158 0.99609 t-0.80566 1.4648 t-0.29297 1.7725 q0 0.947265625 0.2880859375 1.782226563 t0.7959 1.46 t1.2109 0.99121 t1.543 0.36621 q0.5859375 0 1.09375 -0.1904296875 t0.92285 -0.50293 t0.72754 -0.71777 t0.48828 -0.84473 l3.1445 0.87891 q-0.302734375 0.95703125 -0.888671875 1.772460938 t-1.4111 1.4111 t-1.8555 0.9375 t-2.2217 0.3418 q-1.005859375 0 -1.923828125 -0.2734375 t-1.7139 -0.77148 t-1.4453 -1.2012 t-1.1084 -1.5576 t-0.71289 -1.8359 t-0.25391 -2.0459 q0 -1.591796875 0.556640625 -2.983398438 t1.5234 -2.4316 t2.2705 -1.6406 t2.8076 -0.60059 q1.201171875 0 2.021484375 0.2978515625 t1.8066 1.1768 l2.1875 0 l0 3.3008 l-3.0176 0 z"></path>
  </g>
</svg>
